<svg xmlns="http://www.w3.org/2000/svg" width="20.565" height="20.883" viewBox="0 0 20.565 20.883"><defs><style>.a,.b{fill:none;stroke:#4d72fe;stroke-linecap:round;stroke-width:1.5px;fill-rule:evenodd;}.a{stroke-linejoin:round;}</style></defs><g transform="translate(-0.25 -0.25)"><path class="a" d="M38,1a5.72,5.72,0,0,1,5.72,5.72,5.83,5.83,0,0,1-3.548,5.263" transform="translate(-25.243)"/><path class="a" d="M11.72,2A5.72,5.72,0,1,1,6,7.72,5.72,5.72,0,0,1,11.72,2Z" transform="translate(-3.411 -0.682)"/><path class="a" d="M1,44.262A7.467,7.467,0,0,1,8.656,36.6m3.979.9a7.066,7.066,0,0,1,3.617,6.763" transform="translate(0 -23.879)"/><path class="b" d="M48.294,39.119a8.3,8.3,0,0,1,3.387,6.869" transform="translate(-31.616 -25.605)"/></g></svg>