<svg xmlns="http://www.w3.org/2000/svg" width="22.472" height="21.795" viewBox="0 0 22.472 21.795"><defs><style>.a{fill:none;stroke:#979797;stroke-linecap:round;stroke-width:1.5px;fill-rule:evenodd;}</style></defs><g transform="translate(-0.25 -0.25)"><path class="a" d="M27.044,1A3.044,3.044,0,1,1,24,4.044,3.044,3.044,0,0,1,27.044,1Z" transform="translate(-15.22)"/><path class="a" d="M19.777,17.386,16.944,20.9" transform="translate(-9.926 -10.588)"/><path class="a" d="M39.977,15.827l2.891,3.517" transform="translate(-25.808 -9.361)"/><path class="a" d="M33.877,18.36v6.115" transform="translate(-21.838 -11.25)"/><path class="a" d="M18.4,48.216l1.465.586" transform="translate(-11.25 -31.102)"/><path class="a" d="M40,50.353l2.184-1.007" transform="translate(-25.808 -31.764)"/><path class="a" d="M4.044,35A3.044,3.044,0,1,1,1,38.044,3.044,3.044,0,0,1,4.044,35Z" transform="translate(0 -22.499)"/><path class="a" d="M28.368,46A2.543,2.543,0,1,1,26,48.537,2.457,2.457,0,0,1,28.368,46Z" transform="translate(-16.544 -29.779)"/><path class="a" d="M48.044,35A3.044,3.044,0,1,1,45,38.044,3.044,3.044,0,0,1,48.044,35Z" transform="translate(-29.117 -22.499)"/></g></svg>