<svg xmlns="http://www.w3.org/2000/svg" width="22.472" height="20.883" viewBox="0 0 22.472 20.883"><defs><style>.a,.b{fill:none;stroke:#979797;stroke-linecap:round;stroke-width:1.5px;fill-rule:evenodd;}.a{stroke-linejoin:round;}</style></defs><g transform="translate(-0.25 -0.25)"><path class="a" d="M16.47,23.794H2.271A1.222,1.222,0,0,1,1,22.627V7.167A1.222,1.222,0,0,1,2.271,6h.782M15.617,6H19.43A1.222,1.222,0,0,1,20.7,7.167V11.25" transform="translate(0 -3.411)"/><path class="a" d="M16.636,1h8.579a.635.635,0,0,1,.636.636V3.86a.635.635,0,0,1-.636.636H16.636A.635.635,0,0,1,16,3.86V1.636A.635.635,0,0,1,16.636,1Z" transform="translate(-10.234)"/><path class="a" d="M46,44h3.178L46,47.09h3.178" transform="translate(-30.701 -30.337)"/><path class="b" d="M13,22h8.9" transform="translate(-8.187 -14.327)"/><path class="b" d="M13,32.111h4.116" transform="translate(-8.187 -21.26)"/><path class="a" d="M42.039,36A5.039,5.039,0,1,1,37,41.039,5.039,5.039,0,0,1,42.039,36Z" transform="translate(-25.107 -25.695)"/></g></svg>