<svg xmlns="http://www.w3.org/2000/svg" width="64" height="62" viewBox="0 0 64 62"><defs><style>.a{fill:#9ac6ff;}.b,.c{fill:none;stroke:#000;stroke-width:2px;fill-rule:evenodd;}.c{stroke-linecap:round;}</style></defs><circle class="a" cx="7" cy="7" r="7" transform="translate(27 5)"/><circle class="a" cx="7" cy="7" r="7" transform="translate(5 39)"/><circle class="a" cx="6.5" cy="6.5" r="6.5" transform="translate(50 38)"/><circle class="a" cx="5.5" cy="5.5" r="5.5" transform="translate(28 49)"/><path class="b" d="M33,1a9,9,0,1,1-9,9A9,9,0,0,1,33,1Z"/><path class="c" d="M26.982,17.413l-9.43,14.363"/><path class="c" d="M40.619,15.818l9.72,14.539" transform="translate(-1 1)"/><path class="c" d="M34,18V40.714" transform="translate(-1 1)"/><path class="b" d="M18,48l9,4"/><path class="b" d="M40,53l7.434-3.724"/><path class="b" d="M10,35a9,9,0,1,1-9,9A9,9,0,0,1,10,35Z"/><path class="b" d="M33,46a7.518,7.518,0,0,1,0,15,7.518,7.518,0,0,1,0-15Z"/><path class="b" d="M54,35a9,9,0,1,1-9,9A9,9,0,0,1,54,35Z"/></svg>