<svg xmlns="http://www.w3.org/2000/svg" xmlns:xlink="http://www.w3.org/1999/xlink" width="270.268" height="48.106" viewBox="0 0 270.268 48.106"><defs><style>.a{fill:#0a0a0a;stroke:#707070;}.a,.d{fill-rule:evenodd;}.b{fill:#212121;font-size:10px;font-family:MicrosoftYaHei, Microsoft YaHei;}.b,.c{stroke:rgba(0,0,0,0);}.c{font-size:12px;font-family:AaXiaohuli;}.d{fill:rgba(0,0,0,0);stroke:#000;}.e{fill:url(#a);}.f{fill:url(#b);}</style><linearGradient id="a" x1="0.5" x2="0.5" y2="1" gradientUnits="objectBoundingBox"><stop offset="0" stop-color="#9c7efc"/><stop offset="1" stop-color="#53abfc"/></linearGradient><linearGradient id="b" x1="0.5" x2="0.5" y2="1" gradientUnits="objectBoundingBox"><stop offset="0" stop-color="#b49cff"/><stop offset="1" stop-color="#53abfc"/></linearGradient></defs><g transform="translate(70.46 3.89)"><path class="a" d="M58.86,13.343H56.572l-.1,2.27h.1c2.075,0,2.075.513,2.075,2.565v1.539c0,3.59,0,12.415,0,12.415H40.367l.122-13.441c0-1.539-.518-3.077,1.556-3.077H52.586l-2.712-.3L52.8,13.118H45.486l2.925,2.194-6.366.3v-2.27L38.9,13.118v16.82l-4.388,2.194-2.194-2.194,2.925-1.463V23.356l-2.925,1.463V21.162L35.248,19.7V15.312l-2.925,2.194V13.849l2.925-2.194L33.054,8h4.388L38.9,10.924v-.731l3.141-.145V7.995l6.366,0-2.925,2.194H52.8L49.874,8h7.313l-.614,2.049H58.86ZM44.754,29.206H47.68V24.819H44.754Zm3-10.516H44.733V22.5h3.019Zm7.17,0h-3.75V22.5h3.75Zm.071,6.128-3.821.027.165,4.361h3.657Zm-34.06-.6a8.053,8.053,0,0,1-.159,3.264,5.3,5.3,0,0,1-3.112,2.565c-2.075.513-4.151,1.026-5.189.513.519-.513,4.151-2.565,4.669-5.642V14.663h3.632v6.668c0,.771.073,1.686.137,2.583.739.094,3.367.9,3.367.9l.731.731.434,1.936a23.848,23.848,0,0,0,3.632,3.591,8.917,8.917,0,0,1-3.632-.513C22.981,29.59,21.921,26.308,20.932,24.223Zm1.917-1.353V14.15H16.1V24.922l-3.632-1.539V13.638c0-.513.519-1.539,1.038-1.539h3.632V10.56H11.954V8.508H26.481V10.56H21.293c0,.513-.519,1.026-.519,1.539h4.151c1.038,0,1.556,1.026,1.038,1.539l.518,11.284ZM7.285,21.331,8.323,19.28H6.766v6.668c0,2.051-.519,3.077-1.557,3.59C3.653,30.564,1.059,31.077.54,30.564c.519,0,1.556-1.539,2.075-2.051V19.28H1.059L.54,16.2H4.691a22.51,22.51,0,0,0-3.632-3.078l1.556-1.539a3.951,3.951,0,0,1,2.075,1.026L5.729,10.56H1.059L.876,8h9.507l-.5,2.561L6.766,13.638c.518.513,1.037.513,1.556,1.025L6.766,16.2h4.15v2.051l-2.594,4.1Z" transform="translate(-19.078 -2.925)"/><text class="b" transform="translate(64.718 8.11)"><tspan x="0" y="0">严密保护知识产权</tspan></text><text class="c" transform="translate(51.549 40.216)"><tspan x="0" y="0">阿里巴巴原创保护服务商</tspan></text><path class="d" d="M91,33.617s78.73-13.56,152.111-1.463" transform="translate(-43.384 -8.067)"/><g transform="translate(-70.46 -2.699)"><path class="e" d="M593.141,290.936c.073.131.145.262.218.393a1.483,1.483,0,0,0-.113-.285.368.368,0,0,1-.031-.081Z" transform="translate(-572.368 -283.453)"/><path class="f" d="M308,180.75A20.747,20.747,0,1,0,328.743,201.5,20.747,20.747,0,0,0,308,180.75Zm0,39.83a19.083,19.083,0,1,1,16.03-29.439,13.965,13.965,0,0,1-9.056,18.959,11.615,11.615,0,0,0,2.7-15.743l1.527-7.749-6.228,3.691a11.634,11.634,0,0,0-9.853-.031l-6.176-3.66,1.5,7.613a11.558,11.558,0,0,0-2.044,6.58c0,.041,0,.082,0,.123a14.594,14.594,0,0,0,5.4,11.931c3.113,2.6,7.259,3.048,11.111,2.172a19.087,19.087,0,0,0,11.115-7.758,21.15,21.15,0,0,0,1.181-1.869,22.715,22.715,0,0,0,1.867-4.374q.006.235.006.472A19.083,19.083,0,0,1,308,220.58Z" transform="translate(-287.25 -180.75)"/></g></g></svg>