<svg xmlns="http://www.w3.org/2000/svg" width="64" height="63" viewBox="0 0 64 63"><defs><style>.a{fill:#9ac6ff;}.b,.c{fill:none;stroke:#000;stroke-linecap:round;stroke-width:2px;fill-rule:evenodd;}.c{stroke-linejoin:round;}</style></defs><rect class="a" width="27" height="8" rx="2" transform="translate(20 4)"/><circle class="a" cx="9.5" cy="9.5" r="9.5" transform="translate(42 42)"/><path class="b" d="M49.685,62H5a3.847,3.847,0,0,1-4-3.672V9.672A3.847,3.847,0,0,1,5,6h8.955M47,6H59a3.847,3.847,0,0,1,4,3.672V36"/><path class="b" d="M18,1H45a2,2,0,0,1,2,2v7a2,2,0,0,1-2,2H18a2,2,0,0,1-2-2V3A2,2,0,0,1,18,1Z"/><path class="c" d="M46,44H56L46,52H56" transform="translate(-1 1)"/><path class="b" d="M13,22H41"/><path class="b" d="M13,32H41"/><path class="b" d="M50,36A13,13,0,1,1,37,49,13,13,0,0,1,50,36Z"/></svg>