<svg xmlns="http://www.w3.org/2000/svg" width="91.898" height="91.898" viewBox="0 0 91.898 91.898"><defs><style>.a{fill:#5af87a;}.b{fill:#fff;}</style></defs><g transform="translate(-947 -398)"><circle class="a" cx="45.949" cy="45.949" r="45.949" transform="translate(947 398)"/><path class="b" d="M0,52.707q5.917-3.53,11.834-7.064,2.858,5.471,5.724,10.95s4.971-10.5,9.3-16.31c4.6-6.177,8.438-10.8,14.753-13.283a19.047,19.047,0,0,0-.871,6.784,22.119,22.119,0,0,0,2.123,8.354,34.876,34.876,0,0,0-7.353,4.451c-2.023,1.746-3.873,3.752-5.729,5.7A114.287,114.287,0,0,0,18.3,67.6a52.689,52.689,0,0,0-7.8-8.128A39.173,39.173,0,0,0,0,52.707Zm0,0" transform="translate(971.228 396.899)"/></g></svg>